<svg id="Layer_1" data-name="Layer 1" xmlns="http://www.w3.org/2000/svg" viewBox="0 0 1037.62 583.66"><path d="M303.58,104.22l-1.71,202.92,1.71,172.3a191.52,191.52,0,0,0,24.59,2q28,0,57.44-10a181.86,181.86,0,0,0,52-27.19q14.58-11.16,30.15-29.76a212.54,212.54,0,0,0,25-36.35q5.43-10.31,11.72-10.3,9.44,0,9.43,8,0,8.58-14.16,29.05a244.72,244.72,0,0,1-31.06,36.78,199.27,199.27,0,0,1-86.14,48.94,213.14,213.14,0,0,1-57.25,8.3q-40.06,0-80.42-17.17-64.68-27.19-98.45-86.15-28.05-48.94-28.05-103.89,0-56.1,29.19-105.9,31.2-52.95,88.15-81,41.51-20,89.58-20,82.44,0,142.53,55.81,28.62,26.63,28.62,38.35a7.63,7.63,0,0,1-2.85,5.73,9.25,9.25,0,0,1-6.29,2.57q-5.71,0-13.72-11.16-24.57-34-64.87-53.95a190,190,0,0,0-85.16-19.89A96.57,96.57,0,0,0,303.58,104.22Z"/><path d="M771.39,115.67,770,205.25l-.86,85,.86,196.9H595.38l1.72-228.1-.86-77.56-.86-65.83-37.78.86-54.09,1.14-8,.29q-13.73,0-13.73-10.3,0-9.16,8-10.31,2.28-.57,14-.85H855q18.3.28,21.75,1.71,5.71,2.3,5.72,9.73,0,9.74-14.6,9.73L843,116.82l-65.83-1.15Z"/></svg>